<?xml version="1.0" encoding="UTF-8" standalone="no"?>
<!-- Generator: Adobe Illustrator 17.0.1, SVG Export Plug-In . SVG Version: 6.00 Build 0)  -->

<svg
   xmlns:dc="http://purl.org/dc/elements/1.1/"
   xmlns:cc="http://creativecommons.org/ns#"
   xmlns:rdf="http://www.w3.org/1999/02/22-rdf-syntax-ns#"
   xmlns:svg="http://www.w3.org/2000/svg"
   xmlns="http://www.w3.org/2000/svg"
   xmlns:sodipodi="http://sodipodi.sourceforge.net/DTD/sodipodi-0.dtd"
   xmlns:inkscape="http://www.inkscape.org/namespaces/inkscape"
   version="1.1"
   x="0px"
   y="0px"
   width="86px"
   height="86px"
   viewBox="0 0 86 86"
   enable-background="new 0 0 86 86"
   xml:space="preserve"
   id="svg10224"
   inkscape:version="0.91 r13725"
   sodipodi:docname="harbour-batagur.svg"
   inkscape:export-filename="/home/toerb/SailfishOS/workspace/harbour-batagur/harbour-batagur.png"
   inkscape:export-xdpi="90"
   inkscape:export-ydpi="90"><metadata
     id="metadata10245"><rdf:RDF><cc:Work
         rdf:about=""><dc:format>image/svg+xml</dc:format><dc:type
           rdf:resource="http://purl.org/dc/dcmitype/StillImage" /><dc:title></dc:title></cc:Work></rdf:RDF></metadata><defs
     id="defs10243" /><sodipodi:namedview
     pagecolor="#ffffff"
     bordercolor="#666666"
     borderopacity="1"
     objecttolerance="10"
     gridtolerance="10"
     guidetolerance="10"
     inkscape:pageopacity="0"
     inkscape:pageshadow="2"
     inkscape:window-width="1024"
     inkscape:window-height="720"
     id="namedview10241"
     showgrid="false"
     inkscape:zoom="2.744186"
     inkscape:cx="42.148574"
     inkscape:cy="23.034424"
     inkscape:window-x="0"
     inkscape:window-y="0"
     inkscape:window-maximized="1"
     inkscape:current-layer="g10314" /><g
     id="Layer_2"
     display="none" /><g
     id="Layer_1"><linearGradient
       id="SVGID_1_"
       gradientUnits="userSpaceOnUse"
       x1="12.8065"
       y1="73.1935"
       x2="85.2829"
       y2="0.7171"
       gradientTransform="matrix(0,1,-1,0,86,0)"><stop
         offset="0"
         style="stop-color:#7F34B8"
         id="stop10229" /><stop
         offset="0.9951"
         style="stop-color:#F33B82"
         id="stop10231" /></linearGradient><path
       d="m 84.277,85.699 c 0.786,0 1.423,-0.637 1.423,-1.423 0,0 0,-40.641 0,-41.276 C 85.7,19.417 66.583,0.3 43,0.3 19.418,0.3 0.3,19.417 0.3,43 c 0,23.583 19.118,42.7 42.7,42.7 0.636,0 41.277,-0.001 41.277,-0.001 z"
       id="path10233"
       style="fill:#1980ff;fill-opacity:1"
       inkscape:connector-curvature="0" /><g
       id="g10235"
       transform="matrix(0.99908003,-0.04288462,0.04288462,0.99908003,-2.2943346,2.3815405)"><g
         transform="matrix(0.99934132,0.03628943,-0.03628943,0.99934132,-336.92033,-420.37289)"
         inkscape:label="Calque 1"
         id="layer1"><g
           transform="translate(-379.42,99.131)"
           id="g4211"><g
             id="g10314"
             transform="matrix(0.537722,0,0,0.537722,392.86776,127.18711)"
             style="stroke-width:1.48775756;stroke-miterlimit:4;stroke-dasharray:none"><path
               style="fill:#ffffff;stroke:#000000;stroke-width:0;stroke-linecap:round;stroke-linejoin:round;stroke-miterlimit:4;stroke-dasharray:none;stroke-dashoffset:3.00300002"
               d="m 720.66392,377.9431 c -5.09932,-5.44353 -12.48911,-8.76693 -20.08617,-8.88982 -13.29014,-0.51459 -26.16735,8.8423 -30.57112,21.36797 -4.2004,11.09788 -0.77565,24.30823 8.23602,31.66429 7.8293,6.6692 19.24283,7.85016 28.9387,4.27438 l 1.87982,8.21662 c 0.47127,2.47888 2.5167,2.22317 3.95652,0.89278 l 5.66199,-5.42039 5.50128,6.23873 -0.0729,7.76251 10.46561,0.3501 -0.15156,9.29787 3.37585,3.65497 9.74586,0.37902 0.28709,6.52591 4.50332,4.48287 7.62564,0.45427 8.0368,0.64953 c 1.77861,-3.01206 1.35579,-6.52299 -0.51465,-11.9574 l -36.92422,-39.35002 4.16182,-4.28914 c 1.54676,-1.46362 0.46891,-3.95089 -1.47612,-4.42392 l -7.76511,-1.09548 c 2.92395,-7.05299 3.28314,-15.11229 0.54481,-22.15742 -1.17941,-3.24692 -3.04127,-6.15364 -5.35919,-8.62806 z"
               id="path4196"
               inkscape:connector-curvature="0" /><path
               style="fill:#1980ff;fill-opacity:1;stroke:#000000;stroke-width:0;stroke-linecap:round;stroke-linejoin:round;stroke-miterlimit:4;stroke-dasharray:none;stroke-dashoffset:3.00300002"
               d="m 692.42688,392.58959 c -2.07066,2.3664 -6.0096,2.88962 -8.65222,0.95815 -2.16722,-1.51892 -3.23892,-4.40237 -2.5747,-6.90553 0.67512,-2.8211 3.30007,-5.04147 6.25017,-5.0854 2.44715,-0.0918 4.95594,1.32012 6.03773,3.57207 1.17445,2.31617 0.83478,5.23996 -0.80532,7.16705 -0.0823,0.10062 -0.16779,0.19853 -0.25596,0.29398 z"
               id="path4192"
               inkscape:connector-curvature="0" /></g></g></g></g></g></svg>